<svg xmlns="http://www.w3.org/2000/svg" viewBox="0 0 100 100" fill="none" preserveAspectRatio="xMidYMid meet" xml:space="preserve">
<title>Aperiodic Factors</title>
<path d="M50 57C53.866 57 57 53.866 57 50C57 46.134 53.866 43 50 43C46.134 43 43 46.134 43 50C43 53.866 46.134 57 50 57Z" fill="black"/>
<path d="M50 38.5C52.4853 38.5 54.5 36.4853 54.5 34C54.5 31.5147 52.4853 29.5 50 29.5C47.5147 29.5 45.5 31.5147 45.5 34C45.5 36.4853 47.5147 38.5 50 38.5Z" fill="black"/>
<path d="M65.2031 49.6016C67.6884 49.6016 69.7031 47.5868 69.7031 45.1016C69.7031 42.6163 67.6884 40.6016 65.2031 40.6016C62.7178 40.6016 60.7031 42.6163 60.7031 45.1016C60.7031 47.5868 62.7178 49.6016 65.2031 49.6016Z" fill="black"/>
<path d="M59.3984 67.3984C61.8837 67.3984 63.8984 65.3837 63.8984 62.8984C63.8984 60.4132 61.8837 58.3984 59.3984 58.3984C56.9132 58.3984 54.8984 60.4132 54.8984 62.8984C54.8984 65.3837 56.9132 67.3984 59.3984 67.3984Z" fill="black"/>
<path d="M40.6016 67.3984C43.0868 67.3984 45.1016 65.3837 45.1016 62.8984C45.1016 60.4132 43.0868 58.3984 40.6016 58.3984C38.1163 58.3984 36.1016 60.4132 36.1016 62.8984C36.1016 65.3837 38.1163 67.3984 40.6016 67.3984Z" fill="black"/>
<path d="M34.7969 49.6016C37.2822 49.6016 39.2969 47.5868 39.2969 45.1016C39.2969 42.6163 37.2822 40.6016 34.7969 40.6016C32.3116 40.6016 30.2969 42.6163 30.2969 45.1016C30.2969 47.5868 32.3116 49.6016 34.7969 49.6016Z" fill="black"/>
<path d="M50 18C51.1046 18 52 17.1046 52 16C52 14.8954 51.1046 14 50 14C48.8954 14 48 14.8954 48 16C48 17.1046 48.8954 18 50 18Z" fill="black"/>
<path d="M70 24.5C71.1046 24.5 72 23.6046 72 22.5C72 21.3954 71.1046 20.5 70 20.5C68.8954 20.5 68 21.3954 68 22.5C68 23.6046 68.8954 24.5 70 24.5Z" fill="black"/>
<path d="M82.2969 41.5C83.4014 41.5 84.2969 40.6046 84.2969 39.5C84.2969 38.3954 83.4014 37.5 82.2969 37.5C81.1923 37.5 80.2969 38.3954 80.2969 39.5C80.2969 40.6046 81.1923 41.5 82.2969 41.5Z" fill="black"/>
<path d="M82.2969 62.5C83.4014 62.5 84.2969 61.6046 84.2969 60.5C84.2969 59.3954 83.4014 58.5 82.2969 58.5C81.1923 58.5 80.2969 59.3954 80.2969 60.5C80.2969 61.6046 81.1923 62.5 82.2969 62.5Z" fill="black"/>
<path d="M70 79.5C71.1046 79.5 72 78.6046 72 77.5C72 76.3954 71.1046 75.5 70 75.5C68.8954 75.5 68 76.3954 68 77.5C68 78.6046 68.8954 79.5 70 79.5Z" fill="black"/>
<path d="M50 86C51.1046 86 52 85.1046 52 84C52 82.8954 51.1046 82 50 82C48.8954 82 48 82.8954 48 84C48 85.1046 48.8954 86 50 86Z" fill="black"/>
<path d="M30 79.5C31.1046 79.5 32 78.6046 32 77.5C32 76.3954 31.1046 75.5 30 75.5C28.8954 75.5 28 76.3954 28 77.5C28 78.6046 28.8954 79.5 30 79.5Z" fill="black"/>
<path d="M17.7031 62.5C18.8077 62.5 19.7031 61.6046 19.7031 60.5C19.7031 59.3954 18.8077 58.5 17.7031 58.5C16.5986 58.5 15.7031 59.3954 15.7031 60.5C15.7031 61.6046 16.5986 62.5 17.7031 62.5Z" fill="black"/>
<path d="M17.7031 41.5C18.8077 41.5 19.7031 40.6046 19.7031 39.5C19.7031 38.3954 18.8077 37.5 17.7031 37.5C16.5986 37.5 15.7031 38.3954 15.7031 39.5C15.7031 40.6046 16.5986 41.5 17.7031 41.5Z" fill="black"/>
<path d="M30 24.5C31.1046 24.5 32 23.6046 32 22.5C32 21.3954 31.1046 20.5 30 20.5C28.8954 20.5 28 21.3954 28 22.5C28 23.6046 28.8954 24.5 30 24.5Z" fill="black"/>
<path d="M76.9969 14.0016C77.6596 14.0016 78.1969 13.4643 78.1969 12.8016C78.1969 12.1388 77.6596 11.6016 76.9969 11.6016C76.3341 11.6016 75.7969 12.1388 75.7969 12.8016C75.7969 13.4643 76.3341 14.0016 76.9969 14.0016Z" fill="black"/>
<path d="M93.7 65.4C94.3627 65.4 94.9 64.8627 94.9 64.2C94.9 63.5373 94.3627 63 93.7 63C93.0373 63 92.5 63.5373 92.5 64.2C92.5 64.8627 93.0373 65.4 93.7 65.4Z" fill="black"/>
<path d="M49.9969 97.1969C50.6596 97.1969 51.1969 96.6596 51.1969 95.9969C51.1969 95.3341 50.6596 94.7969 49.9969 94.7969C49.3341 94.7969 48.7969 95.3341 48.7969 95.9969C48.7969 96.6596 49.3341 97.1969 49.9969 97.1969Z" fill="black"/>
<path d="M6.30156 65.4C6.9643 65.4 7.50156 64.8627 7.50156 64.2C7.50156 63.5373 6.9643 63 6.30156 63C5.63882 63 5.10156 63.5373 5.10156 64.2C5.10156 64.8627 5.63882 65.4 6.30156 65.4Z" fill="black"/>
<path d="M22.9969 14.0016C23.6596 14.0016 24.1969 13.4643 24.1969 12.8016C24.1969 12.1388 23.6596 11.6016 22.9969 11.6016C22.3341 11.6016 21.7969 12.1388 21.7969 12.8016C21.7969 13.4643 22.3341 14.0016 22.9969 14.0016Z" fill="black"/>
</svg>
